<svg width="24" height="24" viewBox="0 0 24 24" fill="none" xmlns="http://www.w3.org/2000/svg">
<path d="M19.7 15.3V11.9313C19.7 9.53917 17.7608 7.60001 15.3687 7.60001H8.63124C6.23916 7.60001 4.29999 9.53917 4.29999 11.9313V15.3C4.29999 19.5526 7.7474 23 12 23C16.2526 23 19.7 19.5526 19.7 15.3Z" stroke="white" stroke-width="1.8"/>
<path d="M16.95 8.14999V7.04999C16.95 4.31618 14.7338 2.09999 12 2.09999C9.26618 2.09999 7.04999 4.31618 7.04999 7.04999V8.14999" stroke="white" stroke-width="1.8"/>
<path d="M19.7 14.2H23" stroke="white" stroke-width="1.8" stroke-linecap="round"/>
<path d="M4.3 14.2H1" stroke="white" stroke-width="1.8" stroke-linecap="round"/>
<path d="M14.75 2.65L17.5 1" stroke="white" stroke-width="1.8" stroke-linecap="round"/>
<path d="M9.25 2.65L6.5 1" stroke="white" stroke-width="1.8" stroke-linecap="round"/>
<path d="M21.35 20.8002L19.15 19.9202" stroke="white" stroke-width="1.8" stroke-linecap="round"/>
<path d="M21.35 7.59978L19.15 8.47978" stroke="white" stroke-width="1.8" stroke-linecap="round"/>
<path d="M2.64996 20.8002L4.84996 19.9202" stroke="white" stroke-width="1.8" stroke-linecap="round"/>
<path d="M2.64996 7.59978L4.84996 8.47978" stroke="white" stroke-width="1.8" stroke-linecap="round"/>
<path d="M12 22.45V15.3" stroke="white" stroke-width="1.8" stroke-linecap="round"/>
</svg>
