<svg width="32" height="26" viewBox="0 0 32 26" fill="none" xmlns="http://www.w3.org/2000/svg">
<path d="M11.5 11.5C13.1569 11.5 14.5 10.1569 14.5 8.5C14.5 6.84315 13.1569 5.5 11.5 5.5C9.84315 5.5 8.5 6.84315 8.5 8.5C8.5 10.1569 9.84315 11.5 11.5 11.5Z" stroke="white" stroke-width="1.8"/>
<path d="M17.5 17.5C17.5 19.1569 17.5 20.5 11.5 20.5C5.5 20.5 5.5 19.1569 5.5 17.5C5.5 15.8431 8.18629 14.5 11.5 14.5C14.8137 14.5 17.5 15.8431 17.5 17.5Z" stroke="white" stroke-width="1.8"/>
<path d="M31 13C31 18.6568 31 21.4853 29.2426 23.2426C27.4853 25 24.6568 25 19 25H13C7.34314 25 4.51473 25 2.75736 23.2426C1 21.4853 1 18.6568 1 13C1 7.34314 1 4.51472 2.75736 2.75735C4.51473 1 7.34314 1 13 1H19C24.6568 1 27.4853 1 29.2426 2.75735C29.947 3.46177 30.3691 4.33825 30.622 5.5" stroke="white" stroke-width="1.8" stroke-linecap="round"/>
<path d="M26.5 13H20.5" stroke="white" stroke-width="1.8" stroke-linecap="round"/>
<path d="M26.5 8.5H19" stroke="white" stroke-width="1.8" stroke-linecap="round"/>
<path d="M26.5 17.5H22" stroke="white" stroke-width="1.8" stroke-linecap="round"/>
</svg>
