<svg width="24" height="24" viewBox="0 0 24 24" fill="none" xmlns="http://www.w3.org/2000/svg">
<path d="M12 12C13.8226 12 15.3 10.5225 15.3 8.69999C15.3 6.87745 13.8226 5.39999 12 5.39999C10.1775 5.39999 8.70001 6.87745 8.70001 8.69999C8.70001 10.5225 10.1775 12 12 12Z" stroke="white" stroke-width="1.8"/>
<path d="M12 23C18.0751 23 23 18.0751 23 12C23 5.92487 18.0751 1 12 1C5.92487 1 1 5.92487 1 12C1 18.0751 5.92487 23 12 23Z" stroke="white" stroke-width="1.8"/>
<path d="M18.566 20.8C18.391 17.6194 17.4172 15.3 11.9999 15.3C6.58273 15.3 5.6089 17.6194 5.43384 20.8" stroke="white" stroke-width="1.8" stroke-linecap="round"/>
</svg>
