<svg width="24" height="24" viewBox="0 0 24 24" fill="none" xmlns="http://www.w3.org/2000/svg">
<path d="M22.9976 10.35C22.9797 6.24501 22.8192 4.04105 21.389 2.61091C19.7782 1 17.1854 1 12 1C6.81453 1 4.22182 1 2.61091 2.61091C1 4.22182 1 6.81453 1 12C1 17.1854 1 19.7782 2.61091 21.389C3.97581 22.754 6.04555 22.9623 9.79998 22.9942" stroke="#FAFBFA" stroke-width="1.8" stroke-linecap="round"/>
<path d="M22.4499 7.59998H1.54999" stroke="#FAFBFA" stroke-width="1.8" stroke-linecap="round"/>
<path d="M10.35 1.55002L6.5 7.60001" stroke="#FAFBFA" stroke-width="1.8" stroke-linecap="round"/>
<path d="M17.5 1.55002L13.65 7.60001" stroke="#FAFBFA" stroke-width="1.8" stroke-linecap="round"/>
<path d="M19.2182 14.1289L19.677 13.6701C20.4372 12.9099 21.6696 12.9099 22.4298 13.6701C23.1901 14.4303 23.1901 15.6628 22.4298 16.423L21.971 16.8818M19.2182 14.1289C19.2182 14.1289 19.2756 15.1039 20.1358 15.9642C20.9961 16.8244 21.971 16.8818 21.971 16.8818M19.2182 14.1289L15.0002 18.347C14.7145 18.6327 14.5717 18.7754 14.4488 18.933C14.3039 19.1188 14.1796 19.3198 14.0783 19.5326C13.9923 19.7129 13.9285 19.9045 13.8007 20.2878L13.3916 21.515L13.2593 21.912M21.971 16.8818L17.753 21.0997C17.4673 21.3855 17.3245 21.5283 17.167 21.6512C16.9812 21.796 16.7801 21.9203 16.5674 22.0216C16.3871 22.1077 16.1955 22.1715 15.8121 22.2993L14.585 22.7084L14.188 22.8407M13.2593 21.912L13.1269 22.3091C13.064 22.4976 13.1132 22.7056 13.2538 22.8462C13.3944 22.9868 13.6024 23.036 13.7909 22.973L14.188 22.8407M13.2593 21.912L14.188 22.8407" stroke="#FAFBFA" stroke-width="1.8"/>
</svg>
