<svg width="24" height="24" viewBox="0 0 24 24" fill="none" xmlns="http://www.w3.org/2000/svg">
<path d="M20.3179 6.5C20.5695 5.06475 19.4649 3.75 18.0079 3.75H5.99168C4.53457 3.75 3.43016 5.06475 3.68164 6.5" stroke="white" stroke-width="1.8"/>
<path d="M18.0499 3.75C18.0812 3.46501 18.0968 3.32249 18.097 3.20479C18.0995 2.07879 17.2513 1.1327 16.1317 1.01256C16.0147 1 15.8714 1 15.5847 1H8.41512C8.12842 1 7.98505 1 7.86801 1.01256C6.74846 1.1327 5.90032 2.07879 5.90278 3.20477C5.90303 3.32249 5.91864 3.46499 5.94985 3.75" stroke="white" stroke-width="1.8"/>
<path d="M15.3 18.6H8.70001" stroke="white" stroke-width="1.8" stroke-linecap="round"/>
<path d="M1.42186 13.9723C0.931229 10.4923 0.685917 8.75242 1.72855 7.62621C2.77119 6.5 4.62734 6.5 8.33963 6.5H15.6604C19.3726 6.5 21.2288 6.5 22.2715 7.62621C23.3141 8.75242 23.0688 10.4923 22.5782 13.9723L22.1129 17.2723C21.7281 20.0013 21.5358 21.3657 20.5489 22.1829C19.562 23 18.1063 23 15.1951 23H8.8049C5.89369 23 4.43808 23 3.45117 22.1829C2.46427 21.3657 2.27189 20.0013 1.88713 17.2723L1.42186 13.9723Z" stroke="white" stroke-width="1.8"/>
</svg>
