<svg width="31" height="24" viewBox="0 0 31 24" fill="none" xmlns="http://www.w3.org/2000/svg">
<path d="M29.0145 1H1" stroke="white" stroke-width="1.8" stroke-linecap="round"/>
<path d="M29.0145 7.22543H1" stroke="white" stroke-width="1.8" stroke-linecap="round"/>
<path d="M13.4509 13.4509H1" stroke="white" stroke-width="1.8" stroke-linecap="round"/>
<path d="M13.4509 19.6763H1" stroke="white" stroke-width="1.8" stroke-linecap="round"/>
<path d="M25.7072 13.635C28.2811 15.1212 29.5682 15.8642 29.7572 16.9362C29.8045 17.2045 29.8045 17.4789 29.7572 17.7471C29.5682 18.8191 28.2811 19.5621 25.7072 21.0483C23.1333 22.5343 21.8462 23.2773 20.8234 22.905C20.5673 22.8119 20.3298 22.6747 20.1211 22.4996C19.2872 21.7998 19.2872 20.3138 19.2872 17.3416C19.2872 14.3695 19.2872 12.8834 20.1211 12.1837C20.3298 12.0086 20.5673 11.8715 20.8234 11.7783C21.8462 11.406 23.1333 12.149 25.7072 13.635Z" stroke="white" stroke-width="1.8"/>
</svg>
