<svg width="24" height="24" viewBox="0 0 24 24" fill="none" xmlns="http://www.w3.org/2000/svg">
<path d="M18.6 9.80002H13.1" stroke="white" stroke-width="1.8" stroke-linecap="round"/>
<path d="M9.79999 2.10001H16.95C17.4608 2.10001 17.7162 2.10001 17.9307 2.12824C19.4116 2.3232 20.5768 3.48845 20.7717 4.96927C20.8 5.18371 20.8 5.43914 20.8 5.95001" stroke="white" stroke-width="1.8"/>
<path d="M1 6.44473C1 5.47394 1 4.98855 1.07629 4.58423C1.4121 2.80434 2.80434 1.4121 4.58423 1.07629C4.98855 1 5.47394 1 6.44473 1C6.87006 1 7.08274 1 7.28713 1.01912C8.16832 1.10152 9.00417 1.44774 9.68553 2.01256C9.84356 2.14357 9.99393 2.29396 10.2947 2.59472L10.9 3.2C11.7974 4.09736 12.2461 4.54604 12.7833 4.84497C13.0784 5.00918 13.3916 5.13886 13.7164 5.23146C14.3077 5.4 14.9422 5.4 16.2112 5.4H16.6223C19.518 5.4 20.9657 5.4 21.9068 6.24641C21.9934 6.32426 22.0758 6.40665 22.1535 6.49321C23 7.43429 23 8.88209 23 11.7777V14.2C23 18.3483 23 20.4226 21.7112 21.7112C20.4226 23 18.3483 23 14.2 23H9.8C5.65164 23 3.57747 23 2.28873 21.7112C1 20.4226 1 18.3483 1 14.2V6.44473Z" stroke="white" stroke-width="1.8"/>
</svg>
