<svg width="54" height="58" viewBox="0 0 54 58" fill="none" xmlns="http://www.w3.org/2000/svg">
<circle cx="30.5" cy="26" r="23" fill="#4D5464"/>
<circle cx="30.5" cy="26" r="22.5" stroke="#4873E2" stroke-opacity="0.83"/>
<g filter="url(#filter0_d_9_4)">
<path d="M6.5 19.9891C6.5 29.9242 13.6765 37.9782 22.5293 37.9782C26.2331 37.9782 29.6434 36.5684 32.3576 34.2009L44.883 48.2577L47.5 45.3207L34.9999 31.2922C37.2255 28.2033 38.5585 24.2709 38.5585 19.9891C38.5585 10.054 31.382 2 22.5293 2C13.6765 2 6.5 10.054 6.5 19.9891Z" fill="#A9A9A9" stroke="#4873E2" stroke-width="2" stroke-miterlimit="1"/>
<g filter="url(#filter1_d_9_4)">
<ellipse cx="21.6627" cy="21.1948" rx="12.7367" ry="14.294" fill="#A12AFF" fill-opacity="0.5" shape-rendering="crispEdges"/>
</g>
<g filter="url(#filter2_f_9_4)">
<path d="M32.5444 19.3266C32.742 8.36694 22.997 8.8389 22.997 8.8389C22.997 8.8389 27.0449 9.70351 28.8167 11.6394C30.4552 13.4295 32.5444 19.3266 32.5444 19.3266Z" fill="#4873E2"/>
</g>
</g>
<defs>
<filter id="filter0_d_9_4" x="0.7" y="0.2" width="52.3466" height="57.523" filterUnits="userSpaceOnUse" color-interpolation-filters="sRGB">
<feFlood flood-opacity="0" result="BackgroundImageFix"/>
<feColorMatrix in="SourceAlpha" type="matrix" values="0 0 0 0 0 0 0 0 0 0 0 0 0 0 0 0 0 0 127 0" result="hardAlpha"/>
<feOffset dy="4"/>
<feGaussianBlur stdDeviation="2.4"/>
<feComposite in2="hardAlpha" operator="out"/>
<feColorMatrix type="matrix" values="0 0 0 0 0 0 0 0 0 0 0 0 0 0 0 0 0 0 0.4 0"/>
<feBlend mode="normal" in2="BackgroundImageFix" result="effect1_dropShadow_9_4"/>
<feBlend mode="normal" in="SourceGraphic" in2="effect1_dropShadow_9_4" result="shape"/>
</filter>
<filter id="filter1_d_9_4" x="7.52604" y="6.90079" width="28.2734" height="33.988" filterUnits="userSpaceOnUse" color-interpolation-filters="sRGB">
<feFlood flood-opacity="0" result="BackgroundImageFix"/>
<feColorMatrix in="SourceAlpha" type="matrix" values="0 0 0 0 0 0 0 0 0 0 0 0 0 0 0 0 0 0 127 0" result="hardAlpha"/>
<feOffset dy="4"/>
<feGaussianBlur stdDeviation="0.7"/>
<feComposite in2="hardAlpha" operator="out"/>
<feColorMatrix type="matrix" values="0 0 0 0 0 0 0 0 0 0 0 0 0 0 0 0 0 0 0.25 0"/>
<feBlend mode="normal" in2="BackgroundImageFix" result="effect1_dropShadow_9_4"/>
<feBlend mode="normal" in="SourceGraphic" in2="effect1_dropShadow_9_4" result="shape"/>
</filter>
<filter id="filter2_f_9_4" x="21.697" y="7.53594" width="12.1503" height="13.0906" filterUnits="userSpaceOnUse" color-interpolation-filters="sRGB">
<feFlood flood-opacity="0" result="BackgroundImageFix"/>
<feBlend mode="normal" in="SourceGraphic" in2="BackgroundImageFix" result="shape"/>
<feGaussianBlur stdDeviation="0.65" result="effect1_foregroundBlur_9_4"/>
</filter>
</defs>
</svg>
