<svg width="39" height="39" viewBox="0 0 39 39" fill="none" xmlns="http://www.w3.org/2000/svg">
<path d="M19.5 16C28.25 16 27.55 37 14.25 37" stroke="#4873E2" stroke-width="3" stroke-linecap="round"/>
<path d="M20.0451 23C11.2951 23 11.9951 2 25.2951 2" stroke="#4873E2" stroke-width="3" stroke-linecap="round"/>
<path d="M17.1053 17.2182C23.2924 11.0309 37.6466 26.3752 28.2421 35.7797" stroke="#1756F9" stroke-width="3" stroke-linecap="round" stroke-dasharray="66.67 66.67"/>
<path d="M22.4398 21.7818C16.2527 27.9691 1.89847 12.6249 11.303 3.22034" stroke="#1756F9" stroke-width="3" stroke-linecap="round" stroke-dasharray="66.67 66.67"/>
<path d="M17.4898 22.1673C11.3026 15.9801 26.6468 1.62588 36.0513 11.0304" stroke="#1756F9" stroke-width="3" stroke-linecap="round" stroke-dasharray="66.67 66.67"/>
<path d="M22.0553 16.8326C28.2425 23.0198 12.8983 37.3741 3.49377 27.9696" stroke="#1756F9" stroke-width="3" stroke-linecap="round" stroke-dasharray="66.67 66.67"/>
<path d="M16 20.0451C16 11.2952 37 11.9952 37 25.2951" stroke="#9747FF" stroke-width="3" stroke-linecap="round"/>
<path d="M23 19.5C23 28.25 2 27.55 2 14.25" stroke="#9747FF" stroke-width="3" stroke-linecap="round"/>
<path d="M19.5 23C21.433 23 23 21.433 23 19.5C23 17.567 21.433 16 19.5 16C17.567 16 16 17.567 16 19.5C16 21.433 17.567 23 19.5 23Z" stroke="#FAFBFA" stroke-width="3"/>
</svg>
